<svg id="svg" version="1.1" xmlns="http://www.w3.org/2000/svg" xmlns:xlink="http://www.w3.org/1999/xlink" width="400" height="400" viewBox="0, 0, 400,400"><g id="svgg"><path id="path0" d="M253.425 46.828 C 242.963 47.443,231.768 49.755,224.600 52.781 C 219.189 55.065,218.001 55.632,215.395 57.176 C 214.072 57.959,212.534 58.836,211.975 59.125 C 207.424 61.477,198.092 70.404,194.752 75.600 C 190.243 82.615,187.879 88.789,186.328 97.600 C 185.620 101.623,185.617 116.893,186.324 120.400 C 187.178 124.638,188.256 128.823,188.899 130.400 C 189.123 130.950,189.441 131.760,189.605 132.200 C 193.246 141.992,202.597 152.650,212.637 158.454 C 214.840 159.727,221.821 163.200,222.178 163.200 C 222.305 163.200,223.172 163.546,224.104 163.969 C 225.037 164.391,228.500 165.759,231.800 167.008 C 244.861 171.951,246.232 172.473,247.100 172.830 C 249.009 173.615,249.879 173.951,252.200 174.800 C 255.039 175.839,255.832 176.141,257.300 176.746 C 259.384 177.606,260.207 177.925,262.600 178.800 C 265.568 179.886,266.334 180.199,272.400 182.814 C 276.327 184.506,285.106 189.289,286.314 190.394 C 286.691 190.739,287.630 191.449,288.400 191.971 C 301.809 201.067,306.088 221.406,297.735 236.342 C 293.135 244.569,282.434 250.667,269.000 252.719 C 267.460 252.954,264.892 253.338,263.293 253.573 C 259.546 254.123,242.291 254.127,238.846 253.579 C 237.391 253.347,234.940 252.969,233.400 252.738 C 231.860 252.507,230.150 252.178,229.600 252.006 C 229.050 251.834,227.790 251.471,226.800 251.199 C 222.405 249.993,215.440 246.764,213.835 245.189 C 213.634 244.991,213.313 243.788,213.120 242.515 C 212.927 241.242,212.581 239.030,212.350 237.600 C 212.120 236.170,211.780 234.010,211.595 232.800 C 210.955 228.606,210.394 224.988,210.012 222.600 C 208.899 215.629,208.718 214.501,208.532 213.377 C 208.357 212.316,208.084 212.086,206.465 211.642 C 205.439 211.361,204.150 210.981,203.600 210.798 C 200.475 209.758,200.645 209.661,198.166 213.898 C 196.911 216.044,195.082 219.132,194.102 220.760 C 192.392 223.598,191.822 224.581,189.957 227.900 C 189.494 228.725,188.973 229.580,188.800 229.800 C 188.627 230.020,188.106 230.875,187.643 231.700 C 185.266 235.930,181.595 242.188,180.117 244.528 C 178.732 246.720,179.021 247.450,182.400 250.297 C 185.488 252.899,194.115 259.200,194.589 259.200 C 194.736 259.200,195.608 259.712,196.528 260.337 C 217.916 274.885,260.268 279.172,288.696 269.667 C 295.724 267.317,306.718 261.702,308.400 259.603 C 308.510 259.466,309.010 259.073,309.512 258.731 C 316.600 253.890,324.028 243.057,326.744 233.600 C 329.584 223.711,330.312 209.778,328.377 202.354 C 328.170 201.558,328.000 200.491,328.000 199.982 C 328.000 199.473,327.832 198.504,327.627 197.828 C 327.422 197.153,327.041 195.790,326.781 194.800 C 322.336 177.905,308.399 163.166,289.587 155.469 C 288.604 155.067,287.350 154.548,286.800 154.315 C 286.250 154.083,285.350 153.713,284.800 153.493 C 284.250 153.273,283.440 152.948,283.000 152.770 C 282.560 152.593,277.160 150.535,271.000 148.198 C 264.840 145.861,259.350 143.756,258.800 143.521 C 258.250 143.285,257.440 142.961,257.000 142.800 C 256.560 142.639,255.750 142.321,255.200 142.093 C 254.650 141.865,253.120 141.283,251.800 140.800 C 250.480 140.317,248.950 139.735,248.400 139.507 C 247.850 139.279,246.995 138.937,246.500 138.746 C 246.005 138.556,245.195 138.238,244.700 138.039 C 244.205 137.840,242.720 137.271,241.400 136.774 C 229.031 132.113,220.417 125.092,216.102 116.155 C 212.035 107.730,211.213 92.875,214.377 85.000 C 216.600 79.469,219.019 77.314,227.800 73.047 C 242.294 66.002,270.941 65.342,287.200 71.679 C 291.543 73.372,291.461 73.235,291.736 79.290 C 292.254 90.691,292.761 99.935,293.029 102.854 L 293.310 105.908 294.955 106.400 C 295.860 106.671,297.050 107.041,297.600 107.221 C 301.011 108.342,300.826 108.441,304.181 103.722 C 305.871 101.345,307.639 98.892,308.110 98.270 C 308.580 97.649,309.513 96.353,310.183 95.390 C 314.466 89.230,324.220 75.778,324.483 75.667 C 326.631 74.762,314.412 62.934,307.100 58.840 C 306.275 58.378,304.925 57.612,304.100 57.138 C 290.239 49.177,273.033 45.676,253.425 46.828 M72.955 49.900 C 72.834 50.285,72.570 51.013,72.367 51.519 C 72.165 52.024,72.000 52.869,72.000 53.395 C 72.000 53.922,71.820 54.464,71.600 54.600 C 70.232 55.446,71.403 56.613,75.000 57.987 C 76.059 58.392,77.487 58.983,79.200 59.725 C 79.970 60.059,82.760 61.184,85.400 62.225 C 88.040 63.266,90.371 64.271,90.580 64.459 C 90.789 64.647,91.196 64.800,91.484 64.800 C 91.773 64.800,92.772 65.152,93.704 65.581 C 94.637 66.011,96.390 66.746,97.599 67.214 C 98.808 67.683,100.023 68.253,100.299 68.482 C 101.090 69.138,101.006 273.159,100.210 284.000 C 98.783 303.451,95.814 314.611,88.877 326.600 C 84.747 333.737,80.401 339.995,76.500 344.422 C 75.785 345.233,75.200 346.098,75.200 346.343 C 75.200 346.986,80.470 353.600,80.982 353.600 C 81.799 353.600,94.859 345.258,96.000 344.008 C 96.110 343.888,97.190 342.994,98.400 342.023 C 101.170 339.800,108.458 332.504,110.808 329.600 C 111.788 328.390,112.705 327.310,112.848 327.200 C 114.219 326.141,121.100 313.864,123.273 308.600 C 125.281 303.736,127.143 296.765,128.004 290.884 C 128.207 289.500,128.514 288.150,128.686 287.884 C 128.859 287.618,129.090 239.250,129.200 180.400 L 129.400 73.400 130.349 71.489 C 131.346 69.483,133.418 67.467,135.665 66.317 C 137.423 65.417,142.367 63.200,142.614 63.200 C 142.721 63.200,143.662 62.822,144.704 62.360 C 145.747 61.898,146.960 61.377,147.400 61.201 C 147.840 61.025,148.875 60.593,149.700 60.241 C 150.525 59.888,151.875 59.312,152.700 58.959 C 153.525 58.607,154.560 58.172,155.000 57.993 C 155.440 57.814,156.385 57.428,157.100 57.136 C 158.490 56.568,158.787 55.425,158.040 53.519 C 157.842 53.013,157.475 51.835,157.224 50.900 L 156.768 49.200 114.971 49.200 C 75.516 49.200,73.163 49.239,72.955 49.900 " stroke="none" fill="#fbf9f9" fill-rule="evenodd"></path><path id="path1" d="M30.400 0.291 C 29.630 0.382,28.829 0.624,28.620 0.829 C 28.411 1.033,27.826 1.200,27.320 1.200 C 26.814 1.200,26.400 1.380,26.400 1.600 C 26.400 1.820,25.860 2.000,25.200 2.000 C 24.540 2.000,24.000 2.180,24.000 2.400 C 24.000 2.620,23.640 2.800,23.200 2.800 C 22.760 2.800,22.400 2.980,22.400 3.200 C 22.400 3.420,22.040 3.600,21.600 3.600 C 21.160 3.600,20.800 3.780,20.800 4.000 C 20.800 4.220,20.440 4.400,20.000 4.400 C 19.560 4.400,19.200 4.580,19.200 4.800 C 19.200 5.020,18.930 5.200,18.600 5.200 C 18.270 5.200,18.000 5.380,18.000 5.600 C 18.000 5.820,17.730 6.000,17.400 6.000 C 17.070 6.000,16.800 6.151,16.800 6.336 C 16.800 6.520,16.345 6.879,15.790 7.132 C 14.709 7.624,14.031 8.197,11.200 11.006 C 8.280 13.904,7.600 14.735,7.600 15.409 C 7.600 15.760,7.420 15.936,7.200 15.800 C 6.980 15.664,6.800 15.833,6.800 16.176 C 6.800 16.519,6.620 16.800,6.400 16.800 C 6.180 16.800,6.000 17.070,6.000 17.400 C 6.000 17.730,5.820 18.000,5.600 18.000 C 5.380 18.000,5.200 18.270,5.200 18.600 C 5.200 18.930,5.020 19.200,4.800 19.200 C 4.580 19.200,4.400 19.560,4.400 20.000 C 4.400 20.440,4.220 20.800,4.000 20.800 C 3.780 20.800,3.600 21.160,3.600 21.600 C 3.600 22.040,3.420 22.400,3.200 22.400 C 2.980 22.400,2.800 22.760,2.800 23.200 C 2.800 23.640,2.620 24.000,2.400 24.000 C 2.180 24.000,2.000 24.551,2.000 25.224 C 2.000 25.937,1.833 26.344,1.600 26.200 C 1.369 26.057,1.200 26.436,1.200 27.096 C 1.200 27.725,0.975 28.465,0.700 28.740 C -0.036 29.476,-0.036 370.524,0.700 371.260 C 0.975 371.535,1.200 372.275,1.200 372.904 C 1.200 373.564,1.369 373.943,1.600 373.800 C 1.833 373.656,2.000 374.063,2.000 374.776 C 2.000 375.449,2.180 376.000,2.400 376.000 C 2.620 376.000,2.800 376.360,2.800 376.800 C 2.800 377.240,2.980 377.600,3.200 377.600 C 3.420 377.600,3.600 377.960,3.600 378.400 C 3.600 378.840,3.780 379.200,4.000 379.200 C 4.220 379.200,4.400 379.560,4.400 380.000 C 4.400 380.440,4.580 380.800,4.800 380.800 C 5.020 380.800,5.200 381.070,5.200 381.400 C 5.200 381.730,5.380 382.000,5.600 382.000 C 5.820 382.000,6.000 382.270,6.000 382.600 C 6.000 382.930,6.180 383.200,6.400 383.200 C 6.620 383.200,6.800 383.481,6.800 383.824 C 6.800 384.167,6.980 384.336,7.200 384.200 C 7.420 384.064,7.600 384.240,7.600 384.591 C 7.600 385.265,8.280 386.096,11.200 388.994 C 14.031 391.803,14.709 392.376,15.790 392.868 C 16.345 393.121,16.800 393.480,16.800 393.664 C 16.800 393.849,17.070 394.000,17.400 394.000 C 17.730 394.000,18.000 394.180,18.000 394.400 C 18.000 394.620,18.270 394.800,18.600 394.800 C 18.930 394.800,19.200 394.980,19.200 395.200 C 19.200 395.420,19.560 395.600,20.000 395.600 C 20.440 395.600,20.800 395.780,20.800 396.000 C 20.800 396.220,21.160 396.400,21.600 396.400 C 22.040 396.400,22.400 396.580,22.400 396.800 C 22.400 397.020,22.760 397.200,23.200 397.200 C 23.640 397.200,24.000 397.380,24.000 397.600 C 24.000 397.820,24.540 398.000,25.200 398.000 C 25.860 398.000,26.400 398.180,26.400 398.400 C 26.400 398.620,26.814 398.800,27.320 398.800 C 27.826 398.800,28.465 399.025,28.740 399.300 C 29.476 400.036,370.524 400.036,371.260 399.300 C 371.535 399.025,372.174 398.800,372.680 398.800 C 373.186 398.800,373.600 398.620,373.600 398.400 C 373.600 398.180,374.140 398.000,374.800 398.000 C 375.460 398.000,376.000 397.820,376.000 397.600 C 376.000 397.380,376.360 397.200,376.800 397.200 C 377.240 397.200,377.600 397.020,377.600 396.800 C 377.600 396.580,377.960 396.400,378.400 396.400 C 378.840 396.400,379.200 396.220,379.200 396.000 C 379.200 395.780,379.560 395.600,380.000 395.600 C 380.440 395.600,380.800 395.420,380.800 395.200 C 380.800 394.980,381.070 394.800,381.400 394.800 C 381.730 394.800,382.000 394.620,382.000 394.400 C 382.000 394.180,382.270 394.000,382.600 394.000 C 382.930 394.000,383.200 393.849,383.200 393.664 C 383.200 393.480,383.655 393.121,384.210 392.868 C 385.291 392.376,385.969 391.803,388.800 388.994 C 391.720 386.096,392.400 385.265,392.400 384.591 C 392.400 384.240,392.580 384.064,392.800 384.200 C 393.020 384.336,393.200 384.167,393.200 383.824 C 393.200 383.481,393.380 383.200,393.600 383.200 C 393.820 383.200,394.000 382.930,394.000 382.600 C 394.000 382.270,394.180 382.000,394.400 382.000 C 394.620 382.000,394.800 381.730,394.800 381.400 C 394.800 381.070,394.980 380.800,395.200 380.800 C 395.420 380.800,395.600 380.440,395.600 380.000 C 395.600 379.560,395.780 379.200,396.000 379.200 C 396.220 379.200,396.400 378.840,396.400 378.400 C 396.400 377.960,396.580 377.600,396.800 377.600 C 397.020 377.600,397.200 377.240,397.200 376.800 C 397.200 376.360,397.380 376.000,397.600 376.000 C 397.820 376.000,398.000 375.449,398.000 374.776 C 398.000 374.063,398.167 373.656,398.400 373.800 C 398.631 373.943,398.800 373.564,398.800 372.904 C 398.800 372.275,399.025 371.535,399.300 371.260 C 400.036 370.524,400.036 29.476,399.300 28.740 C 399.025 28.465,398.800 27.725,398.800 27.096 C 398.800 26.436,398.631 26.057,398.400 26.200 C 398.167 26.344,398.000 25.937,398.000 25.224 C 398.000 24.551,397.820 24.000,397.600 24.000 C 397.380 24.000,397.200 23.640,397.200 23.200 C 397.200 22.760,397.020 22.400,396.800 22.400 C 396.580 22.400,396.400 22.040,396.400 21.600 C 396.400 21.160,396.220 20.800,396.000 20.800 C 395.780 20.800,395.600 20.440,395.600 20.000 C 395.600 19.560,395.420 19.200,395.200 19.200 C 394.980 19.200,394.800 18.930,394.800 18.600 C 394.800 18.270,394.620 18.000,394.400 18.000 C 394.180 18.000,394.000 17.730,394.000 17.400 C 394.000 17.070,393.820 16.800,393.600 16.800 C 393.380 16.800,393.200 16.519,393.200 16.176 C 393.200 15.833,393.020 15.664,392.800 15.800 C 392.580 15.936,392.400 15.760,392.400 15.409 C 392.400 14.735,391.720 13.904,388.800 11.006 C 385.969 8.197,385.291 7.624,384.210 7.132 C 383.655 6.879,383.200 6.520,383.200 6.336 C 383.200 6.151,382.930 6.000,382.600 6.000 C 382.270 6.000,382.000 5.820,382.000 5.600 C 382.000 5.380,381.730 5.200,381.400 5.200 C 381.070 5.200,380.800 5.020,380.800 4.800 C 380.800 4.580,380.440 4.400,380.000 4.400 C 379.560 4.400,379.200 4.220,379.200 4.000 C 379.200 3.780,378.840 3.600,378.400 3.600 C 377.960 3.600,377.600 3.420,377.600 3.200 C 377.600 2.980,377.240 2.800,376.800 2.800 C 376.360 2.800,376.000 2.620,376.000 2.400 C 376.000 2.180,375.460 2.000,374.800 2.000 C 374.140 2.000,373.600 1.820,373.600 1.600 C 373.600 1.380,373.186 1.200,372.680 1.200 C 372.174 1.200,371.535 0.975,371.260 0.700 C 370.782 0.222,34.383 -0.182,30.400 0.291 M274.400 46.723 C 284.422 47.983,304.486 54.788,305.533 57.282 C 305.607 57.457,305.842 57.600,306.055 57.600 C 307.438 57.600,317.418 65.495,321.808 70.063 C 326.214 74.647,326.126 74.511,325.282 75.432 C 324.895 75.855,324.147 76.830,323.619 77.600 C 321.432 80.794,311.008 95.416,310.787 95.600 C 310.655 95.710,309.941 96.700,309.200 97.800 C 308.459 98.900,307.737 99.890,307.596 100.000 C 307.455 100.110,306.557 101.370,305.600 102.800 C 304.643 104.230,303.755 105.490,303.626 105.600 C 303.498 105.710,302.944 106.474,302.396 107.297 C 301.418 108.768,299.959 109.305,299.400 108.400 C 299.264 108.180,298.634 108.000,298.000 108.000 C 297.366 108.000,296.736 107.820,296.600 107.600 C 296.464 107.380,296.012 107.200,295.595 107.200 C 292.599 107.200,292.354 106.531,291.933 97.200 C 291.058 77.765,290.900 74.964,290.647 74.400 C 290.371 73.787,286.973 72.000,286.083 72.000 C 285.811 72.000,285.277 71.838,284.895 71.639 C 284.248 71.303,283.054 70.959,279.300 70.028 C 268.694 67.397,247.900 67.368,238.200 69.970 C 235.059 70.813,233.367 71.368,233.020 71.670 C 232.811 71.851,232.404 72.000,232.116 72.000 C 231.600 72.000,228.566 73.247,227.000 74.103 C 226.560 74.343,225.570 74.882,224.800 75.300 C 217.542 79.240,216.085 81.132,213.939 89.400 C 213.014 92.961,213.269 105.537,214.343 109.400 C 216.521 117.227,221.700 124.811,227.600 128.812 C 228.370 129.334,229.090 129.885,229.200 130.035 C 229.654 130.657,237.268 134.445,240.800 135.808 C 242.890 136.613,245.050 137.461,245.600 137.690 C 246.150 137.919,247.050 138.287,247.600 138.507 C 248.150 138.727,249.050 139.087,249.600 139.307 C 251.244 139.965,252.126 140.294,253.600 140.800 C 255.209 141.352,256.150 141.708,257.700 142.346 C 258.305 142.596,259.205 142.956,259.700 143.146 C 260.195 143.337,261.050 143.679,261.600 143.907 C 262.150 144.135,263.680 144.717,265.000 145.200 C 267.278 146.033,268.006 146.314,270.100 147.166 C 273.056 148.370,282.690 152.000,282.926 152.000 C 283.082 152.000,284.062 152.378,285.104 152.840 C 286.147 153.302,287.360 153.820,287.800 153.991 C 288.240 154.162,289.860 154.886,291.400 155.600 C 292.940 156.314,294.650 157.101,295.200 157.348 C 295.750 157.596,296.290 157.889,296.400 158.000 C 296.510 158.111,297.140 158.470,297.800 158.798 C 308.235 163.990,318.438 174.288,323.662 184.900 C 324.068 185.725,324.760 187.137,325.200 188.038 C 325.640 188.939,326.000 190.008,326.000 190.414 C 326.000 190.820,326.180 191.264,326.400 191.400 C 326.620 191.536,326.800 192.076,326.800 192.600 C 326.800 193.124,326.960 193.652,327.156 193.773 C 327.351 193.894,327.612 194.579,327.734 195.296 C 327.856 196.013,328.156 197.500,328.402 198.600 C 330.592 208.423,330.406 223.871,328.004 231.600 C 327.833 232.150,327.461 233.410,327.177 234.400 C 326.893 235.390,326.512 236.371,326.330 236.580 C 326.149 236.789,326.000 237.216,326.000 237.529 C 326.000 241.380,316.181 254.761,310.400 258.787 C 309.630 259.323,308.910 259.875,308.800 260.013 C 306.954 262.335,294.298 268.722,287.400 270.813 C 286.520 271.080,285.487 271.456,285.105 271.649 C 284.723 271.842,283.969 272.000,283.429 272.000 C 282.889 272.000,282.348 272.161,282.226 272.358 C 282.105 272.555,281.329 272.817,280.503 272.942 C 279.676 273.067,277.920 273.356,276.600 273.585 C 267.726 275.122,257.496 275.665,246.891 275.161 C 234.846 274.588,229.081 273.647,217.800 270.411 C 212.180 268.798,202.294 264.533,196.846 261.370 C 194.174 259.818,189.017 256.303,188.867 255.930 C 188.793 255.749,188.559 255.600,188.345 255.600 C 187.847 255.600,182.818 251.610,180.107 249.064 L 178.014 247.098 179.154 245.049 C 180.338 242.919,186.105 233.029,188.396 229.200 C 189.611 227.169,190.231 226.098,191.662 223.555 C 191.958 223.030,192.290 222.510,192.400 222.400 C 192.510 222.290,192.842 221.770,193.138 221.245 C 194.941 218.043,198.828 211.366,199.625 210.100 C 200.213 209.168,201.369 208.902,201.800 209.600 C 201.936 209.820,202.489 210.000,203.029 210.000 C 203.569 210.000,204.323 210.162,204.705 210.361 C 205.087 210.560,206.143 210.941,207.052 211.209 C 208.873 211.746,209.319 212.617,209.810 216.600 C 210.098 218.930,210.542 221.873,211.200 225.800 C 211.458 227.340,211.818 229.590,212.000 230.800 C 212.182 232.010,212.532 234.260,212.778 235.800 C 213.281 238.954,213.967 243.654,213.987 244.084 C 214.074 245.970,225.504 250.750,232.949 252.015 C 257.745 256.226,282.429 251.832,293.081 241.310 C 303.054 231.460,304.174 210.774,295.342 199.566 C 290.551 193.485,280.164 186.506,269.800 182.402 C 268.040 181.706,266.060 180.901,265.400 180.613 C 264.740 180.326,263.120 179.693,261.800 179.207 C 260.480 178.720,258.950 178.135,258.400 177.907 C 257.850 177.679,256.995 177.337,256.500 177.146 C 256.005 176.956,255.150 176.620,254.600 176.400 C 254.050 176.180,253.195 175.838,252.700 175.640 C 252.205 175.443,251.170 175.064,250.400 174.800 C 249.630 174.536,248.595 174.157,248.100 173.960 C 247.605 173.762,246.750 173.420,246.200 173.200 C 245.650 172.980,244.750 172.620,244.200 172.400 C 243.650 172.180,242.795 171.838,242.300 171.639 C 241.805 171.440,240.410 170.917,239.200 170.476 C 234.590 168.797,222.906 164.238,220.800 163.297 C 216.548 161.397,215.798 161.040,215.600 160.820 C 215.490 160.698,214.860 160.333,214.200 160.009 C 212.971 159.406,207.160 155.653,206.800 155.230 C 206.690 155.101,205.880 154.468,205.000 153.824 C 199.099 149.503,191.896 139.982,189.097 132.800 C 188.882 132.250,188.548 131.487,188.353 131.105 C 188.159 130.723,188.000 130.059,188.000 129.629 C 188.000 129.199,187.840 128.748,187.644 128.627 C 187.449 128.506,187.192 127.821,187.073 127.104 C 186.955 126.387,186.663 124.990,186.425 124.000 C 183.564 112.090,184.752 95.078,189.178 84.600 C 190.936 80.440,194.506 74.106,195.604 73.200 C 195.737 73.090,196.106 72.623,196.423 72.163 C 198.396 69.300,201.307 66.406,206.301 62.343 C 207.865 61.071,213.168 57.600,213.549 57.600 C 213.760 57.600,213.993 57.460,214.067 57.288 C 214.760 55.669,230.099 49.753,237.090 48.409 C 239.461 47.953,242.168 47.404,243.106 47.190 C 244.044 46.975,245.574 46.790,246.506 46.777 C 247.438 46.764,248.920 46.598,249.800 46.408 C 251.798 45.976,270.348 46.214,274.400 46.723 M157.377 49.289 C 157.720 49.778,158.000 50.667,158.000 51.265 C 158.000 51.863,158.180 52.464,158.400 52.600 C 158.620 52.736,158.800 53.341,158.800 53.944 C 158.800 54.547,158.986 55.226,159.213 55.453 C 159.857 56.097,159.311 56.960,157.894 57.539 C 157.182 57.829,156.240 58.214,155.800 58.393 C 155.360 58.572,154.325 59.007,153.500 59.359 C 152.675 59.712,151.325 60.288,150.500 60.641 C 149.675 60.993,148.595 61.443,148.100 61.641 C 147.605 61.838,146.795 62.175,146.300 62.388 C 145.805 62.602,143.421 63.611,141.003 64.631 C 134.198 67.502,132.023 69.210,130.605 72.800 C 130.351 73.444,130.120 111.422,129.959 179.400 C 129.794 248.626,129.566 285.896,129.296 287.600 C 128.687 291.443,128.065 294.770,127.576 296.800 C 127.337 297.790,127.045 299.187,126.927 299.904 C 126.808 300.621,126.551 301.306,126.356 301.427 C 126.160 301.548,126.000 302.089,126.000 302.629 C 126.000 303.169,125.820 303.968,125.600 304.405 C 125.380 304.842,125.020 305.558,124.800 305.995 C 124.580 306.432,124.400 307.045,124.400 307.357 C 124.400 307.669,124.061 308.616,123.647 309.462 C 123.233 310.308,121.940 312.962,120.773 315.360 C 113.871 329.539,101.365 342.380,84.757 352.336 C 80.528 354.872,80.832 354.884,78.597 352.100 C 77.582 350.835,76.533 349.530,76.267 349.200 C 75.327 348.036,74.400 346.619,74.400 346.348 C 74.400 346.103,77.817 341.703,78.397 341.200 C 79.746 340.030,87.662 327.826,89.099 324.700 C 89.478 323.875,89.926 323.200,90.094 323.200 C 90.262 323.200,90.400 322.840,90.400 322.400 C 90.400 321.960,90.580 321.600,90.800 321.600 C 91.020 321.600,91.200 321.347,91.200 321.038 C 91.200 320.729,91.586 319.694,92.057 318.738 C 92.528 317.782,93.089 316.550,93.303 316.000 C 93.518 315.450,93.852 314.687,94.047 314.305 C 94.241 313.923,94.400 313.259,94.400 312.829 C 94.400 312.399,94.559 311.949,94.754 311.829 C 94.949 311.708,95.204 311.113,95.321 310.505 C 95.438 309.897,95.741 308.680,95.994 307.800 C 97.742 301.711,98.937 293.724,99.583 283.807 C 100.235 273.812,100.155 69.427,99.500 68.884 C 99.225 68.656,95.580 67.086,91.400 65.395 C 87.220 63.703,83.170 62.049,82.400 61.719 C 81.630 61.389,80.595 60.957,80.100 60.759 C 79.605 60.562,78.705 60.196,78.100 59.946 C 76.888 59.447,75.430 58.861,74.200 58.380 C 70.529 56.944,70.728 57.125,70.936 55.400 C 71.350 51.974,72.382 49.036,73.304 48.664 C 73.577 48.553,92.465 48.449,115.277 48.432 L 156.755 48.400 157.377 49.289 " stroke="none" fill="#ac0404" fill-rule="evenodd"></path><path id="path2" d="M250.000 46.404 C 249.230 46.569,250.490 46.610,252.800 46.496 C 255.110 46.382,257.075 46.224,257.167 46.144 C 257.471 45.881,251.425 46.100,250.000 46.404 M264.433 46.145 C 264.525 46.225,266.310 46.379,268.400 46.488 C 270.490 46.596,271.660 46.552,271.000 46.390 C 269.781 46.090,264.128 45.879,264.433 46.145 M243.400 47.200 L 242.600 47.544 243.400 47.532 C 243.840 47.526,244.650 47.376,245.200 47.200 L 246.200 46.880 245.200 46.868 C 244.650 46.862,243.840 47.011,243.400 47.200 M275.600 47.200 C 276.150 47.376,277.050 47.520,277.600 47.520 L 278.600 47.520 277.600 47.200 C 277.050 47.024,276.150 46.880,275.600 46.880 L 274.600 46.880 275.600 47.200 M238.800 48.000 C 238.008 48.254,237.967 48.320,238.600 48.320 C 239.040 48.320,239.850 48.176,240.400 48.000 C 241.192 47.746,241.233 47.680,240.600 47.680 C 240.160 47.680,239.350 47.824,238.800 48.000 M280.200 48.000 C 280.640 48.189,281.360 48.338,281.800 48.332 C 282.443 48.323,282.404 48.257,281.600 48.000 C 280.232 47.562,279.181 47.562,280.200 48.000 M72.976 49.022 C 72.226 49.623,72.230 49.630,73.074 49.222 C 73.669 48.934,87.137 48.800,115.393 48.800 L 156.839 48.800 157.404 50.100 C 157.714 50.815,157.976 51.125,157.984 50.789 C 157.993 50.453,157.720 49.778,157.377 49.289 L 156.755 48.400 115.254 48.400 C 78.309 48.400,73.668 48.468,72.976 49.022 M234.800 48.800 C 233.996 49.057,233.957 49.123,234.600 49.132 C 235.040 49.138,235.760 48.989,236.200 48.800 C 237.219 48.362,236.168 48.362,234.800 48.800 M283.800 48.800 C 284.240 48.989,284.960 49.138,285.400 49.132 C 286.043 49.123,286.004 49.057,285.200 48.800 C 283.832 48.362,282.781 48.362,283.800 48.800 M231.800 49.600 C 231.296 49.817,231.222 49.944,231.600 49.944 C 231.930 49.944,232.560 49.789,233.000 49.600 C 233.504 49.383,233.578 49.256,233.200 49.256 C 232.870 49.256,232.240 49.411,231.800 49.600 M287.000 49.600 C 287.440 49.789,288.070 49.944,288.400 49.944 C 288.778 49.944,288.704 49.817,288.200 49.600 C 287.760 49.411,287.130 49.256,286.800 49.256 C 286.422 49.256,286.496 49.383,287.000 49.600 M292.800 51.476 C 295.714 52.748,298.185 53.643,297.800 53.288 C 297.349 52.873,292.153 50.782,291.696 50.833 C 291.533 50.851,292.030 51.140,292.800 51.476 M222.900 52.634 C 222.185 52.946,221.600 53.290,221.600 53.398 C 221.600 53.576,224.776 52.451,225.167 52.135 C 225.595 51.788,224.062 52.126,222.900 52.634 M71.049 53.815 C 70.912 54.173,70.815 54.766,70.834 55.133 C 70.853 55.500,71.027 55.269,71.221 54.620 C 71.598 53.358,71.465 52.733,71.049 53.815 M218.700 54.626 C 217.655 55.170,216.800 55.705,216.800 55.814 C 216.800 55.993,220.760 54.123,221.167 53.752 C 221.662 53.301,220.361 53.762,218.700 54.626 M158.707 56.172 C 158.599 56.737,158.647 57.200,158.813 57.200 C 159.307 57.200,159.655 55.895,159.265 55.505 C 159.050 55.290,158.824 55.560,158.707 56.172 M144.600 62.778 C 143.720 63.195,143.113 63.550,143.251 63.568 C 143.640 63.618,146.400 62.414,146.400 62.195 C 146.400 61.927,146.399 61.927,144.600 62.778 M313.200 62.518 C 313.200 62.620,314.047 63.397,315.081 64.245 C 316.116 65.093,316.834 65.578,316.676 65.323 C 316.340 64.779,313.200 62.245,313.200 62.518 M203.775 64.500 L 202.600 65.800 203.900 64.625 C 204.615 63.979,205.200 63.394,205.200 63.325 C 205.200 63.016,204.870 63.288,203.775 64.500 M138.100 65.434 C 137.385 65.746,136.800 66.094,136.800 66.207 C 136.800 66.415,139.606 65.327,139.946 64.987 C 140.286 64.647,139.420 64.857,138.100 65.434 M200.574 67.307 L 199.000 68.999 200.596 67.599 C 201.473 66.830,202.268 66.155,202.362 66.100 C 202.456 66.045,202.447 65.913,202.341 65.807 C 202.235 65.701,201.440 66.376,200.574 67.307 M317.252 65.900 C 317.281 66.065,318.946 67.726,320.952 69.592 L 324.600 72.984 321.008 69.292 C 317.375 65.557,317.158 65.361,317.252 65.900 M134.203 67.700 C 132.615 68.794,130.259 71.600,130.928 71.600 C 131.042 71.600,131.497 71.014,131.940 70.297 C 132.383 69.580,133.568 68.474,134.573 67.839 C 136.228 66.793,136.684 66.400,136.245 66.400 C 136.160 66.400,135.241 66.985,134.203 67.700 M255.105 67.883 C 255.602 67.979,256.322 67.975,256.705 67.875 C 257.087 67.775,256.680 67.696,255.800 67.701 C 254.920 67.705,254.607 67.787,255.105 67.883 M245.400 68.420 C 244.611 68.635,245.022 68.670,246.600 68.523 C 247.920 68.400,249.075 68.232,249.167 68.150 C 249.464 67.882,246.634 68.085,245.400 68.420 M264.033 68.144 C 264.125 68.224,265.910 68.383,268.000 68.500 C 270.523 68.640,271.262 68.599,270.200 68.378 C 268.622 68.051,263.710 67.864,264.033 68.144 M240.600 69.200 C 240.096 69.417,240.022 69.544,240.400 69.544 C 240.730 69.544,241.360 69.389,241.800 69.200 C 242.304 68.983,242.378 68.856,242.000 68.856 C 241.670 68.856,241.040 69.011,240.600 69.200 M274.800 69.200 C 275.350 69.376,276.160 69.520,276.600 69.520 C 277.233 69.520,277.192 69.454,276.400 69.200 C 275.850 69.024,275.040 68.880,274.600 68.880 C 273.967 68.880,274.008 68.946,274.800 69.200 M282.400 70.800 C 282.730 71.013,283.270 71.188,283.600 71.188 C 284.133 71.188,284.133 71.145,283.600 70.800 C 283.270 70.587,282.730 70.412,282.400 70.412 C 281.867 70.412,281.867 70.455,282.400 70.800 M130.229 73.029 C 130.081 73.615,130.038 74.172,130.132 74.266 C 130.227 74.360,130.424 73.958,130.571 73.371 C 130.719 72.785,130.762 72.228,130.668 72.134 C 130.573 72.040,130.376 72.442,130.229 73.029 M194.072 75.245 C 193.341 76.363,192.811 77.344,192.894 77.427 C 192.976 77.510,193.693 76.592,194.485 75.389 C 195.278 74.185,195.808 73.203,195.663 73.207 C 195.518 73.211,194.802 74.128,194.072 75.245 M290.663 74.880 C 291.000 76.649,291.200 76.801,291.200 75.290 C 291.200 74.607,291.023 73.938,290.806 73.804 C 290.560 73.652,290.506 74.055,290.663 74.880 M129.699 178.244 C 129.645 235.248,129.515 282.768,129.411 283.844 L 129.222 285.800 129.612 283.951 C 129.861 282.770,129.965 244.580,129.900 178.351 L 129.798 74.600 129.699 178.244 M220.895 77.411 C 219.743 78.186,218.800 78.908,218.800 79.015 C 218.800 79.121,219.790 78.551,221.000 77.747 C 222.922 76.471,223.487 76.000,223.095 76.000 C 223.037 76.000,222.047 76.635,220.895 77.411 M217.201 80.198 C 216.686 80.748,216.339 81.264,216.432 81.346 C 216.524 81.428,217.019 80.978,217.530 80.347 C 218.676 78.935,218.474 78.844,217.201 80.198 M321.129 80.700 C 320.088 81.924,318.628 84.154,319.030 83.905 C 319.477 83.629,322.132 80.000,321.887 80.000 C 321.797 80.000,321.456 80.315,321.129 80.700 M291.230 84.633 C 291.246 86.375,291.408 88.610,291.591 89.600 C 291.804 90.757,291.845 89.685,291.707 86.600 C 291.460 81.090,291.186 79.962,291.230 84.633 M316.688 86.900 C 312.246 92.961,310.426 95.599,310.690 95.593 C 310.860 95.589,311.570 94.734,312.267 93.693 C 312.964 92.652,314.536 90.405,315.761 88.700 C 316.986 86.995,317.910 85.600,317.815 85.600 C 317.719 85.600,317.212 86.185,316.688 86.900 M214.049 87.400 C 214.016 87.840,213.896 88.650,213.783 89.200 L 213.577 90.200 214.006 89.219 C 214.242 88.679,214.361 87.869,214.272 87.419 C 214.113 86.621,214.107 86.621,214.049 87.400 M187.449 89.415 C 187.312 89.773,187.215 90.366,187.234 90.733 C 187.253 91.100,187.427 90.869,187.621 90.220 C 187.998 88.958,187.865 88.333,187.449 89.415 M213.067 93.762 C 212.920 95.499,212.826 98.289,212.859 99.960 C 212.901 102.136,213.013 101.352,213.254 97.200 C 213.619 90.899,213.498 88.667,213.067 93.762 M186.649 92.215 C 186.512 92.573,186.418 93.256,186.441 93.733 C 186.467 94.281,186.603 94.086,186.810 93.203 C 187.160 91.716,187.065 91.133,186.649 92.215 M185.856 96.084 C 185.721 96.588,185.631 97.630,185.655 98.400 C 185.689 99.469,185.775 99.280,186.018 97.602 C 186.353 95.292,186.272 94.533,185.856 96.084 M292.047 100.033 C 292.073 101.885,292.233 103.940,292.401 104.600 C 292.570 105.260,292.613 103.820,292.498 101.400 C 292.247 96.132,291.981 95.325,292.047 100.033 M185.293 101.200 C 185.293 101.970,185.375 102.285,185.476 101.900 C 185.576 101.515,185.576 100.885,185.476 100.500 C 185.375 100.115,185.293 100.430,185.293 101.200 M184.962 109.000 C 184.962 112.520,185.024 113.906,185.098 112.081 C 185.172 110.256,185.172 107.376,185.097 105.681 C 185.022 103.986,184.961 105.480,184.962 109.000 M213.309 104.800 C 213.309 105.790,213.387 106.195,213.482 105.700 C 213.578 105.205,213.578 104.395,213.482 103.900 C 213.387 103.405,213.309 103.810,213.309 104.800 M296.600 107.600 C 296.736 107.820,297.242 107.987,297.724 107.972 C 298.569 107.945,298.571 107.931,297.800 107.600 C 296.699 107.127,296.308 107.127,296.600 107.600 M299.390 108.384 C 299.532 108.613,300.117 108.800,300.690 108.800 C 301.944 108.800,301.799 108.608,300.266 108.240 C 299.523 108.062,299.221 108.111,299.390 108.384 M215.600 114.147 C 215.600 114.580,217.588 118.400,217.813 118.400 C 217.923 118.400,217.539 117.455,216.959 116.300 C 215.843 114.079,215.600 113.694,215.600 114.147 M185.628 119.833 C 185.644 120.695,185.809 121.760,185.996 122.200 C 186.208 122.698,186.251 122.169,186.112 120.800 C 185.844 118.165,185.589 117.657,185.628 119.833 M222.600 124.800 C 223.906 126.120,225.054 127.200,225.151 127.200 C 225.491 127.200,220.995 122.490,220.613 122.445 C 220.399 122.420,221.294 123.480,222.600 124.800 M186.406 124.033 C 186.409 124.565,186.589 125.270,186.806 125.600 C 187.082 126.022,187.123 125.785,186.942 124.800 C 186.625 123.075,186.398 122.749,186.406 124.033 M229.600 130.579 C 229.600 130.689,230.140 131.059,230.800 131.400 C 231.460 131.741,232.000 131.931,232.000 131.821 C 232.000 131.711,231.460 131.341,230.800 131.000 C 230.140 130.659,229.600 130.469,229.600 130.579 M238.000 134.915 C 238.000 135.191,243.259 137.274,243.457 137.076 C 243.544 136.989,242.668 136.548,241.508 136.097 C 240.349 135.647,239.085 135.151,238.700 134.996 C 238.315 134.841,238.000 134.805,238.000 134.915 M199.800 149.200 C 201.106 150.520,202.254 151.600,202.351 151.600 C 202.691 151.600,198.195 146.890,197.813 146.845 C 197.599 146.820,198.494 147.880,199.800 149.200 M276.600 149.971 C 277.480 150.394,278.470 150.747,278.800 150.755 C 279.486 150.771,277.439 149.827,275.974 149.451 C 275.438 149.314,275.720 149.548,276.600 149.971 M202.822 151.900 C 202.834 152.065,203.419 152.638,204.122 153.174 L 205.400 154.149 204.225 152.874 C 203.003 151.549,202.785 151.397,202.822 151.900 M282.433 152.135 C 282.819 152.447,286.000 153.577,286.000 153.402 C 286.000 153.163,283.251 152.000,282.684 152.000 C 282.455 152.000,282.342 152.061,282.433 152.135 M215.601 160.729 C 215.601 161.027,219.634 162.899,219.838 162.696 C 219.907 162.626,218.982 162.094,217.782 161.513 C 216.582 160.933,215.600 160.580,215.601 160.729 M301.200 160.963 C 301.200 161.043,301.650 161.403,302.200 161.763 C 302.750 162.124,303.200 162.263,303.200 162.073 C 303.200 161.884,302.750 161.523,302.200 161.273 C 301.650 161.022,301.200 160.883,301.200 160.963 M308.800 166.454 C 312.369 169.999,316.487 173.664,314.200 171.260 C 312.880 169.873,310.900 168.001,309.800 167.099 C 308.700 166.198,308.250 165.908,308.800 166.454 M229.826 166.965 C 231.844 167.844,233.126 168.059,231.400 167.229 C 230.520 166.806,229.530 166.453,229.200 166.445 C 228.870 166.438,229.152 166.672,229.826 166.965 M261.800 179.171 C 262.680 179.594,263.670 179.947,264.000 179.955 C 264.686 179.971,262.639 179.027,261.174 178.651 C 260.638 178.514,260.920 178.748,261.800 179.171 M265.000 180.307 C 265.527 180.787,271.690 183.243,271.883 183.050 C 271.966 182.968,271.261 182.589,270.317 182.209 C 265.771 180.379,264.631 179.971,265.000 180.307 M283.600 189.321 C 283.600 189.412,284.635 190.151,285.900 190.963 C 287.165 191.775,287.708 192.021,287.106 191.510 C 285.918 190.500,283.600 189.053,283.600 189.321 M290.400 194.062 C 290.400 194.385,294.089 198.045,294.250 197.883 C 294.323 197.811,293.486 196.869,292.391 195.791 C 291.296 194.712,290.400 193.935,290.400 194.062 M327.858 197.600 C 328.175 199.325,328.402 199.651,328.394 198.367 C 328.391 197.835,328.211 197.130,327.994 196.800 C 327.718 196.378,327.677 196.615,327.858 197.600 M328.696 201.846 C 328.812 202.921,328.972 203.875,329.053 203.967 C 329.372 204.329,329.165 200.965,328.837 200.446 C 328.622 200.107,328.568 200.651,328.696 201.846 M297.400 202.800 C 297.741 203.460,298.111 204.000,298.221 204.000 C 298.331 204.000,298.141 203.460,297.800 202.800 C 297.459 202.140,297.089 201.600,296.979 201.600 C 296.869 201.600,297.059 202.140,297.400 202.800 M329.767 214.200 C 329.767 218.380,329.826 220.036,329.898 217.879 C 329.971 215.723,329.970 212.303,329.898 210.279 C 329.825 208.256,329.766 210.020,329.767 214.200 M198.200 212.400 C 197.859 213.060,197.669 213.600,197.779 213.600 C 197.889 213.600,198.259 213.060,198.600 212.400 C 198.941 211.740,199.131 211.200,199.021 211.200 C 198.911 211.200,198.541 211.740,198.200 212.400 M301.107 217.633 C 301.277 225.375,301.488 226.306,301.506 219.400 C 301.514 216.320,301.399 213.365,301.250 212.833 C 301.101 212.301,301.037 214.461,301.107 217.633 M209.038 214.200 C 209.370 216.184,209.602 216.504,209.594 214.967 C 209.591 214.325,209.404 213.530,209.179 213.200 C 208.886 212.770,208.846 213.054,209.038 214.200 M196.600 215.200 C 196.259 215.860,196.069 216.400,196.179 216.400 C 196.289 216.400,196.659 215.860,197.000 215.200 C 197.341 214.540,197.531 214.000,197.421 214.000 C 197.311 214.000,196.941 214.540,196.600 215.200 M209.873 219.200 C 210.004 220.190,210.176 221.075,210.256 221.167 C 210.557 221.514,210.328 218.964,209.990 218.200 C 209.753 217.666,209.714 217.998,209.873 219.200 M210.673 224.400 C 210.804 225.390,210.976 226.275,211.056 226.367 C 211.357 226.714,211.128 224.164,210.790 223.400 C 210.553 222.866,210.514 223.198,210.673 224.400 M191.014 224.635 C 190.641 225.204,190.405 225.738,190.489 225.822 C 190.573 225.907,190.958 225.441,191.344 224.788 C 192.206 223.328,191.948 223.209,191.014 224.635 M328.859 225.800 C 328.820 226.460,328.696 227.450,328.583 228.000 L 328.377 229.000 328.808 228.014 C 329.044 227.472,329.168 226.482,329.083 225.814 L 328.928 224.600 328.859 225.800 M300.454 227.467 C 300.425 227.944,300.296 228.664,300.170 229.067 C 299.952 229.761,299.964 229.762,300.396 229.088 C 300.647 228.697,300.775 227.977,300.681 227.488 C 300.509 226.601,300.509 226.601,300.454 227.467 M188.600 228.800 C 188.259 229.460,188.069 230.000,188.179 230.000 C 188.289 230.000,188.659 229.460,189.000 228.800 C 189.341 228.140,189.531 227.600,189.421 227.600 C 189.311 227.600,188.941 228.140,188.600 228.800 M211.468 229.600 C 211.600 230.810,211.774 231.875,211.854 231.967 C 212.164 232.321,211.925 228.957,211.586 228.200 C 211.352 227.678,211.312 228.163,211.468 229.600 M328.054 229.867 C 328.025 230.344,327.896 231.064,327.770 231.467 C 327.552 232.161,327.564 232.162,327.996 231.488 C 328.247 231.097,328.375 230.377,328.281 229.888 C 328.109 229.001,328.109 229.001,328.054 229.867 M186.894 231.700 C 185.218 234.527,184.364 236.186,185.077 235.231 C 186.034 233.947,188.064 230.400,187.841 230.400 C 187.744 230.400,187.318 230.985,186.894 231.700 M212.288 234.800 C 212.411 236.010,212.577 237.075,212.656 237.167 C 212.953 237.511,212.730 234.167,212.404 233.400 C 212.192 232.902,212.149 233.431,212.288 234.800 M297.453 235.700 L 296.733 237.000 297.558 236.000 C 298.289 235.113,298.614 234.400,298.286 234.400 C 298.224 234.400,297.849 234.985,297.453 235.700 M183.453 237.700 L 182.733 239.000 183.558 238.000 C 184.289 237.113,184.614 236.400,184.286 236.400 C 184.224 236.400,183.849 236.985,183.453 237.700 M213.088 239.800 C 213.211 241.120,213.376 242.275,213.456 242.367 C 213.735 242.689,213.516 239.388,213.193 238.400 C 212.989 237.779,212.949 238.309,213.088 239.800 M181.800 240.400 C 181.459 241.060,181.269 241.600,181.379 241.600 C 181.489 241.600,181.859 241.060,182.200 240.400 C 182.541 239.740,182.731 239.200,182.621 239.200 C 182.511 239.200,182.141 239.740,181.800 240.400 M292.886 241.424 C 292.383 241.961,292.127 242.400,292.316 242.400 C 292.506 242.400,293.083 241.950,293.600 241.400 C 294.117 240.850,294.373 240.411,294.170 240.424 C 293.966 240.438,293.389 240.888,292.886 241.424 M321.786 245.700 L 321.152 247.000 321.967 246.000 C 322.752 245.037,323.008 244.400,322.610 244.400 C 322.506 244.400,322.135 244.985,321.786 245.700 M178.321 246.447 C 178.144 246.896,178.700 247.694,180.133 249.047 L 182.200 251.000 180.537 249.200 C 179.622 248.210,178.807 247.040,178.725 246.600 C 178.600 245.929,178.535 245.904,178.321 246.447 M318.584 250.300 C 317.752 251.345,316.155 253.190,315.035 254.399 L 313.000 256.598 314.918 254.799 C 316.724 253.106,320.663 248.400,320.275 248.400 C 320.177 248.400,319.416 249.255,318.584 250.300 M225.200 250.382 C 225.530 250.605,226.145 250.791,226.567 250.794 C 227.590 250.802,227.271 250.573,225.800 250.244 C 224.924 250.048,224.762 250.085,225.200 250.382 M276.400 250.400 C 275.576 250.664,275.541 250.726,276.200 250.754 C 276.640 250.773,277.270 250.613,277.600 250.400 C 278.301 249.947,277.814 249.947,276.400 250.400 M182.524 251.077 C 182.860 251.621,186.000 254.155,186.000 253.882 C 186.000 253.780,185.153 253.003,184.119 252.155 C 183.084 251.307,182.366 250.822,182.524 251.077 M228.000 251.182 C 228.330 251.405,228.945 251.591,229.367 251.594 C 230.390 251.602,230.071 251.373,228.600 251.044 C 227.724 250.848,227.562 250.885,228.000 251.182 M232.500 252.276 C 232.885 252.376,233.515 252.376,233.900 252.276 C 234.285 252.175,233.970 252.093,233.200 252.093 C 232.430 252.093,232.115 252.175,232.500 252.276 M266.800 252.413 C 266.154 252.629,266.580 252.666,268.000 252.519 C 269.210 252.394,270.275 252.226,270.367 252.146 C 270.687 251.865,267.791 252.083,266.800 252.413 M237.700 253.087 C 238.305 253.178,239.295 253.178,239.900 253.087 C 240.505 252.995,240.010 252.920,238.800 252.920 C 237.590 252.920,237.095 252.995,237.700 253.087 M261.907 253.090 C 262.626 253.179,263.706 253.177,264.307 253.086 C 264.908 252.995,264.320 252.922,263.000 252.924 C 261.680 252.926,261.188 253.001,261.907 253.090 M242.105 253.487 C 242.714 253.579,243.614 253.577,244.105 253.482 C 244.597 253.387,244.100 253.311,243.000 253.314 C 241.900 253.317,241.497 253.395,242.105 253.487 M257.705 253.487 C 258.314 253.579,259.214 253.577,259.705 253.482 C 260.197 253.387,259.700 253.311,258.600 253.314 C 257.500 253.317,257.097 253.395,257.705 253.487 M249.507 253.890 C 250.226 253.979,251.306 253.977,251.907 253.886 C 252.508 253.795,251.920 253.722,250.600 253.724 C 249.280 253.726,248.788 253.801,249.507 253.890 M187.089 254.830 C 187.578 255.339,188.078 255.655,188.201 255.532 C 188.324 255.409,187.924 254.992,187.312 254.606 L 186.200 253.904 187.089 254.830 M193.200 258.901 C 193.200 259.155,196.296 261.200,196.680 261.200 C 196.844 261.200,196.623 260.958,196.189 260.661 C 194.281 259.359,193.200 258.722,193.200 258.901 M198.000 261.964 C 198.550 262.414,199.180 262.783,199.400 262.785 C 199.828 262.788,199.105 262.234,197.800 261.560 C 197.269 261.285,197.336 261.421,198.000 261.964 M303.000 263.600 C 302.340 264.037,301.980 264.392,302.200 264.388 C 302.601 264.382,304.776 262.823,304.400 262.812 C 304.290 262.808,303.660 263.163,303.000 263.600 M207.654 266.587 C 207.990 266.923,210.800 268.016,210.800 267.811 C 210.800 267.701,210.148 267.338,209.351 267.005 C 207.875 266.389,207.318 266.251,207.654 266.587 M225.200 272.382 C 225.530 272.605,226.145 272.791,226.567 272.794 C 227.590 272.802,227.271 272.573,225.800 272.244 C 224.924 272.048,224.762 272.085,225.200 272.382 M281.000 272.400 C 280.229 272.731,280.231 272.745,281.076 272.772 C 281.558 272.787,282.064 272.620,282.200 272.400 C 282.492 271.927,282.101 271.927,281.000 272.400 M228.800 273.200 C 229.130 273.413,229.850 273.573,230.400 273.554 L 231.400 273.520 230.400 273.200 C 228.858 272.706,228.036 272.706,228.800 273.200 M277.200 273.200 L 276.200 273.520 277.200 273.554 C 277.750 273.573,278.470 273.413,278.800 273.200 C 279.564 272.706,278.742 272.706,277.200 273.200 M233.400 273.990 C 234.164 274.328,236.714 274.557,236.367 274.256 C 236.275 274.176,235.390 274.004,234.400 273.873 C 233.198 273.714,232.866 273.753,233.400 273.990 M272.600 274.000 C 271.511 274.277,271.493 274.307,272.400 274.325 C 272.950 274.335,273.760 274.189,274.200 274.000 C 275.186 273.576,274.266 273.576,272.600 274.000 M239.600 274.789 C 240.578 275.113,244.696 275.342,244.367 275.055 C 244.275 274.975,242.940 274.808,241.400 274.684 C 239.696 274.547,238.991 274.588,239.600 274.789 M265.800 274.800 L 263.800 275.074 265.800 275.109 C 266.900 275.128,268.160 274.989,268.600 274.800 L 269.400 274.456 268.600 274.491 C 268.160 274.510,266.900 274.649,265.800 274.800 M252.900 275.491 C 253.725 275.578,255.075 275.578,255.900 275.491 C 256.725 275.405,256.050 275.334,254.400 275.334 C 252.750 275.334,252.075 275.405,252.900 275.491 M99.676 282.600 C 99.630 284.140,99.511 286.390,99.410 287.600 L 99.226 289.800 99.627 287.600 C 99.847 286.390,99.966 284.140,99.893 282.600 L 99.759 279.800 99.676 282.600 M128.862 288.000 C 128.822 288.770,128.696 289.850,128.583 290.400 L 128.377 291.400 128.808 290.414 C 129.044 289.871,129.170 288.791,129.086 288.014 L 128.934 286.600 128.862 288.000 M98.646 293.846 C 98.500 295.093,98.459 296.193,98.557 296.290 C 98.654 296.388,98.861 295.454,99.015 294.215 C 99.170 292.977,99.210 291.877,99.105 291.771 C 98.999 291.666,98.793 292.599,98.646 293.846 M128.049 293.000 C 128.016 293.440,127.896 294.250,127.783 294.800 L 127.577 295.800 128.006 294.819 C 128.242 294.279,128.361 293.469,128.272 293.019 C 128.113 292.221,128.107 292.221,128.049 293.000 M127.246 296.867 C 127.221 297.234,127.096 297.864,126.970 298.267 C 126.752 298.962,126.763 298.963,127.197 298.287 C 127.448 297.896,127.573 297.266,127.473 296.887 C 127.311 296.268,127.288 296.266,127.246 296.867 M97.822 299.422 C 97.672 300.225,97.628 300.962,97.726 301.060 C 97.824 301.157,98.027 300.581,98.178 299.778 C 98.328 298.975,98.372 298.238,98.274 298.140 C 98.176 298.043,97.973 298.619,97.822 299.422 M97.029 303.429 C 96.881 304.015,96.838 304.572,96.932 304.666 C 97.027 304.760,97.224 304.358,97.371 303.771 C 97.519 303.185,97.562 302.628,97.468 302.534 C 97.373 302.440,97.176 302.842,97.029 303.429 M118.153 319.700 C 117.990 319.975,117.575 320.643,117.229 321.185 C 116.838 321.797,116.790 322.052,117.103 321.859 C 117.620 321.540,118.968 319.200,118.634 319.200 C 118.531 319.200,118.315 319.425,118.153 319.700 M112.317 328.212 C 110.842 330.075,109.762 331.593,109.917 331.584 C 110.190 331.569,114.266 326.494,114.920 325.357 C 115.589 324.192,114.913 324.934,112.317 328.212 M87.814 327.035 C 87.441 327.604,87.205 328.138,87.289 328.222 C 87.373 328.307,87.758 327.841,88.144 327.188 C 89.006 325.728,88.748 325.609,87.814 327.035 M86.246 329.800 C 85.891 330.350,85.309 331.295,84.953 331.900 L 84.305 333.000 85.110 332.026 C 86.060 330.876,87.321 328.800,87.069 328.800 C 86.971 328.800,86.601 329.250,86.246 329.800 M104.993 336.500 L 100.600 341.000 105.100 336.607 C 107.575 334.191,109.600 332.166,109.600 332.107 C 109.600 331.818,109.074 332.320,104.993 336.500 M81.375 337.068 C 80.759 337.876,80.459 338.411,80.709 338.256 C 81.221 337.940,82.953 335.600,82.675 335.600 C 82.576 335.600,81.991 336.261,81.375 337.068 M98.971 342.103 L 97.800 343.397 99.000 342.399 C 99.660 341.849,100.275 341.355,100.367 341.300 C 100.458 341.245,100.445 341.112,100.338 341.004 C 100.230 340.896,99.615 341.391,98.971 342.103 M96.200 344.225 C 95.540 344.773,93.380 346.324,91.400 347.671 C 87.959 350.013,86.262 351.317,87.600 350.592 C 90.026 349.277,98.231 343.237,97.600 343.231 C 97.490 343.230,96.860 343.677,96.200 344.225 M77.191 350.388 C 77.657 351.041,78.242 351.702,78.491 351.856 C 78.741 352.011,78.441 351.476,77.825 350.668 C 76.488 348.915,75.984 348.692,77.191 350.388 M84.300 352.229 C 82.805 353.040,82.896 353.378,84.400 352.600 C 85.060 352.259,85.600 351.894,85.600 351.790 C 85.600 351.532,85.557 351.547,84.300 352.229 M79.570 353.300 C 80.103 353.905,80.823 354.386,81.170 354.368 C 81.709 354.341,81.714 354.305,81.200 354.118 C 80.870 353.997,80.150 353.516,79.600 353.049 L 78.600 352.200 79.570 353.300 " stroke="none" fill="#c55656" fill-rule="evenodd"></path><path id="path3" d="M253.900 46.693 C 254.835 46.777,256.365 46.777,257.300 46.693 C 258.235 46.609,257.470 46.540,255.600 46.540 C 253.730 46.540,252.965 46.609,253.900 46.693 M264.311 46.693 C 265.251 46.778,266.691 46.777,267.511 46.691 C 268.330 46.605,267.560 46.536,265.800 46.537 C 264.040 46.539,263.370 46.609,264.311 46.693 M248.105 47.087 C 248.714 47.179,249.614 47.177,250.105 47.082 C 250.597 46.987,250.100 46.911,249.000 46.914 C 247.900 46.917,247.497 46.995,248.105 47.087 M271.100 47.082 C 271.595 47.178,272.405 47.178,272.900 47.082 C 273.395 46.987,272.990 46.909,272.000 46.909 C 271.010 46.909,270.605 46.987,271.100 47.082 M277.233 47.747 C 277.325 47.828,278.120 48.004,279.000 48.138 C 280.115 48.307,280.358 48.271,279.800 48.019 C 279.032 47.671,276.890 47.444,277.233 47.747 M236.600 48.800 C 235.581 49.238,236.632 49.238,238.000 48.800 C 238.804 48.543,238.843 48.477,238.200 48.468 C 237.760 48.462,237.040 48.611,236.600 48.800 M157.606 52.233 C 157.609 52.655,157.795 53.270,158.018 53.600 C 158.315 54.038,158.352 53.876,158.156 53.000 C 157.827 51.529,157.598 51.210,157.606 52.233 M216.300 56.229 C 214.805 57.040,214.896 57.378,216.400 56.600 C 217.060 56.259,217.600 55.894,217.600 55.790 C 217.600 55.532,217.557 55.547,216.300 56.229 M213.400 58.000 C 212.740 58.437,212.380 58.792,212.600 58.788 C 213.001 58.782,215.176 57.223,214.800 57.212 C 214.690 57.208,214.060 57.563,213.400 58.000 M305.600 57.964 C 306.150 58.414,306.780 58.783,307.000 58.785 C 307.428 58.788,306.705 58.234,305.400 57.560 C 304.869 57.285,304.936 57.421,305.600 57.964 M310.144 60.709 C 310.460 61.221,312.800 62.953,312.800 62.675 C 312.800 62.576,312.139 61.991,311.332 61.375 C 310.524 60.759,309.989 60.459,310.144 60.709 M206.203 62.854 C 203.683 64.906,200.609 67.801,198.800 69.829 C 198.030 70.692,199.110 69.775,201.200 67.792 C 203.290 65.809,205.810 63.523,206.800 62.711 C 207.790 61.900,208.510 61.234,208.400 61.232 C 208.290 61.230,207.301 61.960,206.203 62.854 M316.488 65.813 C 317.086 66.443,317.647 66.877,317.735 66.779 C 317.823 66.680,317.333 66.165,316.647 65.634 L 315.400 64.669 316.488 65.813 M133.760 67.533 C 132.902 68.157,131.930 69.012,131.600 69.433 C 131.270 69.855,131.634 69.660,132.409 69.000 C 133.185 68.340,134.265 67.494,134.809 67.121 C 135.354 66.748,135.692 66.433,135.560 66.421 C 135.428 66.409,134.618 66.910,133.760 67.533 M254.100 67.494 C 255.145 67.576,256.855 67.576,257.900 67.494 C 258.945 67.412,258.090 67.344,256.000 67.344 C 253.910 67.344,253.055 67.412,254.100 67.494 M321.212 70.207 C 322.856 71.971,324.282 73.359,324.382 73.292 C 324.482 73.225,323.137 71.782,321.394 70.085 L 318.225 67.000 321.212 70.207 M248.307 67.890 C 249.026 67.979,250.106 67.977,250.707 67.886 C 251.308 67.795,250.720 67.722,249.400 67.724 C 248.080 67.726,247.588 67.801,248.307 67.890 M262.313 67.895 C 263.476 67.976,265.276 67.976,266.313 67.893 C 267.351 67.811,266.400 67.745,264.200 67.746 C 262.000 67.747,261.151 67.814,262.313 67.895 M99.899 68.440 C 100.295 68.947,100.420 90.850,100.500 173.840 L 100.602 278.600 100.701 173.749 C 100.795 74.299,100.764 68.870,100.100 68.349 C 99.480 67.863,99.457 67.873,99.899 68.440 M271.400 68.423 C 272.280 68.605,273.540 68.742,274.200 68.727 C 275.100 68.707,274.950 68.620,273.600 68.380 C 271.186 67.950,269.294 67.987,271.400 68.423 M238.800 69.200 C 237.996 69.457,237.957 69.523,238.600 69.532 C 239.040 69.538,239.760 69.389,240.200 69.200 C 241.219 68.762,240.168 68.762,238.800 69.200 M276.800 69.200 C 277.350 69.376,278.250 69.517,278.800 69.513 C 279.698 69.506,279.678 69.474,278.600 69.200 C 276.908 68.769,275.456 68.769,276.800 69.200 M280.600 70.000 C 281.040 70.189,281.760 70.338,282.200 70.332 C 282.843 70.323,282.804 70.257,282.000 70.000 C 280.632 69.562,279.581 69.562,280.600 70.000 M230.523 71.745 C 227.698 72.936,227.254 73.484,230.000 72.392 C 233.651 70.939,233.837 70.850,233.200 70.860 C 232.870 70.865,231.665 71.264,230.523 71.745 M196.744 72.300 C 195.593 73.689,195.106 74.400,195.304 74.400 C 195.414 74.400,195.986 73.770,196.573 73.000 C 197.663 71.571,197.795 71.032,196.744 72.300 M290.677 73.614 C 290.940 73.951,291.221 75.301,291.302 76.614 L 291.449 79.000 291.524 76.549 C 291.584 74.629,291.448 73.979,290.900 73.549 C 290.287 73.068,290.259 73.076,290.677 73.614 M220.707 76.926 C 219.666 77.626,218.811 78.335,218.807 78.499 C 218.802 78.730,220.978 77.344,223.167 75.723 C 223.258 75.656,223.168 75.611,222.967 75.626 C 222.765 75.640,221.748 76.225,220.707 76.926 M323.292 77.029 C 322.797 77.783,322.472 78.400,322.569 78.400 C 322.847 78.400,324.504 75.971,324.339 75.806 C 324.257 75.724,323.786 76.274,323.292 77.029 M193.753 76.500 C 192.376 78.836,192.286 79.035,192.987 78.200 C 193.800 77.232,194.500 76.000,194.238 76.000 C 194.133 76.000,193.915 76.225,193.753 76.500 M129.296 178.400 C 129.240 234.390,129.113 281.460,129.014 283.000 L 128.834 285.800 129.218 283.076 C 129.457 281.381,129.563 241.913,129.500 178.476 L 129.398 76.600 129.296 178.400 M319.408 82.442 C 318.601 83.565,318.132 84.365,318.366 84.221 C 318.852 83.920,321.332 80.400,321.057 80.400 C 320.957 80.400,320.215 81.319,319.408 82.442 M291.714 84.600 C 291.717 85.700,291.795 86.103,291.887 85.495 C 291.979 84.886,291.977 83.986,291.882 83.495 C 291.787 83.003,291.711 83.500,291.714 84.600 M292.144 90.400 C 292.144 92.490,292.212 93.345,292.294 92.300 C 292.376 91.255,292.376 89.545,292.294 88.500 C 292.212 87.455,292.144 88.310,292.144 90.400 M213.400 88.400 C 213.248 89.091,213.207 89.741,213.309 89.842 C 213.411 89.944,213.609 89.453,213.750 88.750 C 214.083 87.083,213.760 86.760,213.400 88.400 M314.975 88.668 C 314.359 89.476,314.059 90.011,314.309 89.856 C 314.821 89.540,316.553 87.200,316.275 87.200 C 316.176 87.200,315.591 87.861,314.975 88.668 M212.657 93.500 C 212.346 95.378,212.409 103.000,212.747 104.577 C 212.886 105.225,213.000 102.660,213.000 98.877 C 213.000 91.282,213.007 91.384,212.657 93.500 M311.544 93.500 C 310.393 94.889,309.906 95.600,310.104 95.600 C 310.214 95.600,310.786 94.970,311.373 94.200 C 312.463 92.771,312.595 92.232,311.544 93.500 M186.222 96.622 C 186.072 97.425,186.028 98.162,186.126 98.260 C 186.224 98.357,186.427 97.781,186.578 96.978 C 186.728 96.175,186.772 95.438,186.674 95.340 C 186.576 95.243,186.373 95.819,186.222 96.622 M292.514 99.400 C 292.517 100.500,292.595 100.903,292.687 100.295 C 292.779 99.686,292.777 98.786,292.682 98.295 C 292.587 97.803,292.511 98.300,292.514 99.400 M306.892 99.829 C 306.397 100.583,306.072 101.200,306.169 101.200 C 306.447 101.200,308.104 98.771,307.939 98.606 C 307.857 98.524,307.386 99.074,306.892 99.829 M185.459 102.500 C 185.128 105.254,185.170 114.174,185.523 116.155 C 185.675 117.010,185.800 113.815,185.800 109.055 C 185.800 99.417,185.809 99.588,185.459 102.500 M292.962 103.996 C 292.995 105.884,293.112 106.204,293.800 106.273 C 294.385 106.332,294.417 106.300,293.920 106.152 C 293.423 106.004,293.197 105.390,293.082 103.875 L 292.924 101.800 292.962 103.996 M302.800 105.600 C 302.330 106.260,302.036 106.800,302.146 106.800 C 302.256 106.800,302.730 106.260,303.200 105.600 C 303.670 104.940,303.964 104.400,303.854 104.400 C 303.744 104.400,303.270 104.940,302.800 105.600 M213.256 107.600 C 213.256 107.930,213.411 108.560,213.600 109.000 C 213.817 109.504,213.944 109.578,213.944 109.200 C 213.944 108.870,213.789 108.240,213.600 107.800 C 213.383 107.296,213.256 107.222,213.256 107.600 M301.386 107.623 C 301.240 107.858,300.561 107.949,299.862 107.828 L 298.600 107.609 299.739 108.051 C 300.667 108.411,300.999 108.373,301.525 107.846 C 301.881 107.491,302.053 107.200,301.909 107.200 C 301.765 107.200,301.529 107.391,301.386 107.623 M217.000 118.000 C 217.341 118.660,217.711 119.200,217.821 119.200 C 217.931 119.200,217.741 118.660,217.400 118.000 C 217.059 117.340,216.689 116.800,216.579 116.800 C 216.469 116.800,216.659 117.340,217.000 118.000 M186.080 120.200 C 186.080 120.640,186.224 121.450,186.400 122.000 C 186.654 122.792,186.720 122.833,186.720 122.200 C 186.720 121.760,186.576 120.950,186.400 120.400 C 186.146 119.608,186.080 119.567,186.080 120.200 M219.996 122.394 C 220.690 123.271,221.467 124.118,221.723 124.276 C 221.978 124.434,221.493 123.716,220.645 122.681 C 219.797 121.647,219.020 120.800,218.918 120.800 C 218.816 120.800,219.301 121.518,219.996 122.394 M228.269 130.032 C 228.766 130.633,231.200 132.164,231.200 131.876 C 231.200 131.783,230.435 131.202,229.500 130.585 C 228.565 129.968,228.011 129.720,228.269 130.032 M231.600 132.179 C 231.600 132.289,232.140 132.659,232.800 133.000 C 233.460 133.341,234.000 133.531,234.000 133.421 C 234.000 133.311,233.460 132.941,232.800 132.600 C 232.140 132.259,231.600 132.069,231.600 132.179 M193.843 141.130 C 194.259 141.862,195.103 143.032,195.717 143.730 C 196.524 144.648,196.421 144.390,195.346 142.800 C 193.538 140.126,192.815 139.323,193.843 141.130 M197.634 146.247 C 198.165 146.933,198.680 147.423,198.779 147.335 C 198.877 147.247,198.443 146.686,197.813 146.088 L 196.669 145.000 197.634 146.247 M264.626 145.765 C 266.644 146.644,267.926 146.859,266.200 146.029 C 265.320 145.606,264.330 145.253,264.000 145.245 C 263.670 145.238,263.952 145.472,264.626 145.765 M201.638 150.500 C 201.732 150.555,202.527 151.230,203.404 152.000 L 205.000 153.400 203.622 151.900 C 202.863 151.075,202.068 150.400,201.855 150.400 C 201.641 150.400,201.544 150.445,201.638 150.500 M205.200 153.333 C 205.200 153.443,205.920 154.103,206.800 154.800 C 207.680 155.497,208.400 155.977,208.400 155.867 C 208.400 155.757,207.680 155.097,206.800 154.400 C 205.920 153.703,205.200 153.223,205.200 153.333 M300.000 160.521 C 300.000 160.612,301.035 161.351,302.300 162.163 C 303.565 162.975,304.108 163.221,303.506 162.710 C 302.318 161.700,300.000 160.253,300.000 160.521 M304.800 163.733 C 304.800 163.843,305.520 164.503,306.400 165.200 C 307.280 165.897,308.000 166.377,308.000 166.267 C 308.000 166.157,307.280 165.497,306.400 164.800 C 305.520 164.103,304.800 163.623,304.800 163.733 M308.400 166.525 C 308.400 166.594,308.985 167.179,309.700 167.825 L 311.000 169.000 309.825 167.700 C 308.730 166.488,308.400 166.216,308.400 166.525 M239.800 170.371 C 240.680 170.794,241.670 171.147,242.000 171.155 C 242.686 171.171,240.639 170.227,239.174 169.851 C 238.638 169.714,238.920 169.948,239.800 170.371 M313.200 171.000 C 313.946 171.770,314.647 172.400,314.757 172.400 C 314.867 172.400,314.346 171.770,313.600 171.000 C 312.854 170.230,312.153 169.600,312.043 169.600 C 311.933 169.600,312.454 170.230,313.200 171.000 M315.200 173.064 C 315.200 173.282,315.695 173.897,316.300 174.430 L 317.400 175.400 316.400 174.200 C 315.850 173.540,315.355 172.925,315.300 172.833 C 315.245 172.742,315.200 172.845,315.200 173.064 M283.200 188.501 C 283.200 188.755,286.296 190.800,286.680 190.800 C 286.844 190.800,286.623 190.558,286.189 190.261 C 284.281 188.959,283.200 188.322,283.200 188.501 M292.400 195.800 C 293.595 197.010,294.663 198.000,294.773 198.000 C 294.883 198.000,293.995 197.010,292.800 195.800 C 291.605 194.590,290.537 193.600,290.427 193.600 C 290.317 193.600,291.205 194.590,292.400 195.800 M327.206 196.633 C 327.209 197.055,327.395 197.670,327.618 198.000 C 327.915 198.438,327.952 198.276,327.756 197.400 C 327.427 195.929,327.198 195.610,327.206 196.633 M328.028 200.433 C 328.044 200.965,328.219 201.760,328.419 202.200 C 328.671 202.758,328.707 202.515,328.538 201.400 C 328.255 199.543,327.987 199.036,328.028 200.433 M328.885 205.800 C 328.877 206.460,329.010 207.900,329.182 209.000 C 329.436 210.635,329.497 210.745,329.517 209.600 C 329.530 208.830,329.397 207.390,329.220 206.400 C 328.988 205.091,328.896 204.928,328.885 205.800 M200.263 209.899 C 200.161 210.064,200.723 210.247,201.511 210.305 C 203.124 210.424,203.129 210.239,201.525 209.855 C 200.933 209.713,200.366 209.733,200.263 209.899 M203.600 210.782 C 203.930 211.005,204.545 211.191,204.967 211.194 C 205.990 211.202,205.671 210.973,204.200 210.644 C 203.324 210.448,203.162 210.485,203.600 210.782 M300.868 210.800 C 300.888 211.839,301.518 213.546,301.532 212.600 C 301.538 212.160,301.389 211.440,301.200 211.000 C 300.989 210.510,300.861 210.432,300.868 210.800 M198.200 213.200 C 197.859 213.860,197.669 214.400,197.779 214.400 C 197.889 214.400,198.259 213.860,198.600 213.200 C 198.941 212.540,199.131 212.000,199.021 212.000 C 198.911 212.000,198.541 212.540,198.200 213.200 M208.428 213.233 C 208.444 213.765,208.619 214.560,208.819 215.000 C 209.071 215.558,209.107 215.315,208.938 214.200 C 208.655 212.343,208.387 211.836,208.428 213.233 M196.494 216.100 C 194.818 218.927,193.964 220.586,194.677 219.631 C 195.634 218.347,197.664 214.800,197.441 214.800 C 197.344 214.800,196.918 215.385,196.494 216.100 M301.750 219.400 C 301.751 221.820,301.816 222.758,301.896 221.485 C 301.976 220.212,301.975 218.232,301.894 217.085 C 301.814 215.938,301.749 216.980,301.750 219.400 M209.287 218.000 C 209.283 218.550,209.424 219.450,209.600 220.000 C 210.031 221.344,210.031 219.892,209.600 218.200 C 209.326 217.122,209.294 217.102,209.287 218.000 M329.025 220.425 C 328.870 221.994,328.827 223.361,328.929 223.462 C 329.031 223.564,329.243 222.366,329.400 220.800 C 329.557 219.234,329.600 217.867,329.496 217.763 C 329.392 217.658,329.180 218.856,329.025 220.425 M210.028 223.233 C 210.044 223.765,210.219 224.560,210.419 225.000 C 210.671 225.558,210.707 225.315,210.538 224.200 C 210.255 222.343,209.987 221.836,210.028 223.233 M301.029 226.629 C 300.881 227.215,300.838 227.772,300.932 227.866 C 301.027 227.960,301.224 227.558,301.371 226.971 C 301.519 226.385,301.562 225.828,301.468 225.734 C 301.373 225.640,301.176 226.042,301.029 226.629 M328.222 227.022 C 328.072 227.825,328.028 228.562,328.126 228.660 C 328.224 228.757,328.427 228.181,328.578 227.378 C 328.728 226.575,328.772 225.838,328.674 225.740 C 328.576 225.643,328.373 226.219,328.222 227.022 M189.053 228.900 L 188.333 230.200 189.158 229.200 C 189.889 228.313,190.214 227.600,189.886 227.600 C 189.824 227.600,189.449 228.185,189.053 228.900 M210.828 228.433 C 210.844 228.965,211.019 229.760,211.219 230.200 C 211.471 230.758,211.507 230.515,211.338 229.400 C 211.055 227.543,210.787 227.036,210.828 228.433 M327.449 230.615 C 327.312 230.973,327.215 231.566,327.234 231.933 C 327.253 232.300,327.427 232.069,327.621 231.420 C 327.998 230.158,327.865 229.533,327.449 230.615 M211.668 233.600 C 211.662 234.150,211.811 234.960,212.000 235.400 L 212.344 236.200 212.332 235.400 C 212.326 234.960,212.176 234.150,212.000 233.600 L 211.680 232.600 211.668 233.600 M183.400 238.400 C 183.059 239.060,182.869 239.600,182.979 239.600 C 183.089 239.600,183.459 239.060,183.800 238.400 C 184.141 237.740,184.331 237.200,184.221 237.200 C 184.111 237.200,183.741 237.740,183.400 238.400 M296.075 238.384 C 295.594 239.035,295.200 239.700,295.200 239.862 C 295.200 240.023,295.650 239.545,296.200 238.800 C 296.750 238.055,297.200 237.390,297.200 237.322 C 297.200 236.995,296.875 237.302,296.075 238.384 M212.487 238.400 C 212.483 238.950,212.624 239.850,212.800 240.400 C 213.231 241.744,213.231 240.292,212.800 238.600 C 212.526 237.522,212.494 237.502,212.487 238.400 M322.951 242.900 C 322.583 243.615,322.019 244.650,321.698 245.200 C 321.139 246.159,321.143 246.167,321.789 245.400 C 322.578 244.463,324.107 241.600,323.818 241.600 C 323.710 241.600,323.319 242.185,322.951 242.900 M180.553 243.300 C 179.176 245.636,179.086 245.835,179.787 245.000 C 180.600 244.032,181.300 242.800,181.038 242.800 C 180.933 242.800,180.715 243.025,180.553 243.300 M213.234 243.424 C 213.215 243.876,213.483 244.596,213.830 245.024 C 214.176 245.451,214.337 245.561,214.187 245.269 C 214.037 244.976,213.769 244.256,213.591 243.669 C 213.333 242.811,213.262 242.763,213.234 243.424 M285.800 247.021 C 284.480 247.774,283.580 248.391,283.800 248.391 C 284.281 248.393,288.400 246.065,288.400 245.792 C 288.400 245.529,288.489 245.487,285.800 247.021 M178.846 246.630 C 178.821 247.087,179.295 247.897,179.900 248.430 L 181.000 249.400 180.140 248.400 C 179.667 247.850,179.193 247.040,179.086 246.600 C 178.899 245.825,178.891 245.826,178.846 246.630 M318.202 250.100 C 317.142 251.475,316.633 252.284,317.071 251.898 C 317.899 251.168,320.570 247.600,320.289 247.600 C 320.201 247.600,319.261 248.725,318.202 250.100 M182.124 250.277 C 182.460 250.821,185.600 253.355,185.600 253.082 C 185.600 252.980,184.753 252.203,183.719 251.355 C 182.684 250.507,181.966 250.022,182.124 250.277 M275.000 251.200 C 274.496 251.417,274.422 251.544,274.800 251.544 C 275.130 251.544,275.760 251.389,276.200 251.200 C 276.704 250.983,276.778 250.856,276.400 250.856 C 276.070 250.856,275.440 251.011,275.000 251.200 M271.800 252.000 C 271.296 252.217,271.222 252.344,271.600 252.344 C 271.930 252.344,272.560 252.189,273.000 252.000 C 273.504 251.783,273.578 251.656,273.200 251.656 C 272.870 251.656,272.240 251.811,271.800 252.000 M233.600 252.800 C 234.150 252.976,234.960 253.120,235.400 253.120 C 236.033 253.120,235.992 253.054,235.200 252.800 C 234.650 252.624,233.840 252.480,233.400 252.480 C 232.767 252.480,232.808 252.546,233.600 252.800 M267.000 252.800 C 265.922 253.074,265.902 253.106,266.800 253.113 C 267.350 253.117,268.250 252.976,268.800 252.800 C 270.144 252.369,268.692 252.369,267.000 252.800 M239.400 253.594 C 240.613 253.909,244.675 254.122,244.367 253.856 C 244.275 253.776,242.850 253.615,241.200 253.497 C 239.442 253.372,238.697 253.412,239.400 253.594 M259.400 253.600 L 257.000 253.866 259.200 253.885 C 260.410 253.896,261.940 253.768,262.600 253.600 C 264.138 253.209,262.937 253.209,259.400 253.600 M186.400 253.762 C 186.400 253.872,187.210 254.519,188.200 255.200 C 189.190 255.881,190.000 256.348,190.000 256.238 C 190.000 256.128,189.190 255.481,188.200 254.800 C 187.210 254.119,186.400 253.652,186.400 253.762 M194.800 259.620 C 196.187 260.561,196.978 260.835,196.000 260.036 C 195.450 259.586,194.820 259.217,194.600 259.215 C 194.380 259.213,194.470 259.396,194.800 259.620 M300.300 264.629 C 298.805 265.440,298.896 265.778,300.400 265.000 C 301.060 264.659,301.600 264.294,301.600 264.190 C 301.600 263.932,301.557 263.947,300.300 264.629 M217.600 269.982 C 217.930 270.205,218.545 270.391,218.967 270.394 C 219.990 270.402,219.671 270.173,218.200 269.844 C 217.324 269.648,217.162 269.685,217.600 269.982 M220.400 270.782 C 220.730 271.005,221.345 271.191,221.767 271.194 C 222.790 271.202,222.471 270.973,221.000 270.644 C 220.124 270.448,219.962 270.485,220.400 270.782 M284.856 270.859 C 284.117 271.072,283.587 271.320,283.679 271.412 C 283.881 271.614,286.800 270.837,286.800 270.581 C 286.800 270.346,286.482 270.391,284.856 270.859 M232.033 273.349 C 232.125 273.431,233.100 273.601,234.200 273.728 C 235.549 273.884,235.874 273.849,235.200 273.620 C 234.201 273.280,231.718 273.068,232.033 273.349 M272.400 273.620 C 271.726 273.849,272.051 273.884,273.400 273.728 C 274.500 273.601,275.475 273.431,275.567 273.349 C 275.882 273.068,273.399 273.280,272.400 273.620 M237.633 274.148 C 237.725 274.229,239.150 274.396,240.800 274.519 C 243.024 274.684,243.386 274.652,242.200 274.394 C 240.599 274.046,237.319 273.869,237.633 274.148 M266.000 274.417 C 265.135 274.609,265.746 274.646,267.600 274.512 C 269.250 274.393,270.675 274.229,270.767 274.148 C 271.058 273.890,267.457 274.093,266.000 274.417 M250.321 275.099 C 252.588 275.170,256.188 275.170,258.321 275.098 C 260.455 275.026,258.600 274.968,254.200 274.968 C 249.800 274.968,248.055 275.027,250.321 275.099 M100.131 281.400 C 100.133 282.940,100.205 283.521,100.292 282.691 C 100.379 281.861,100.377 280.601,100.289 279.891 C 100.200 279.181,100.129 279.860,100.131 281.400 M99.413 290.213 C 99.257 291.671,99.214 292.947,99.316 293.050 C 99.419 293.152,99.631 292.044,99.787 290.587 C 99.943 289.129,99.986 287.853,99.884 287.750 C 99.781 287.648,99.569 288.756,99.413 290.213 M128.200 289.600 C 128.046 290.510,128.004 291.338,128.107 291.440 C 128.210 291.543,128.413 290.877,128.560 289.960 C 128.707 289.043,128.748 288.215,128.653 288.120 C 128.558 288.024,128.354 288.690,128.200 289.600 M127.449 293.815 C 127.312 294.173,127.215 294.766,127.234 295.133 C 127.253 295.500,127.427 295.269,127.621 294.620 C 127.998 293.358,127.865 292.733,127.449 293.815 M126.649 297.415 C 126.512 297.773,126.415 298.366,126.434 298.733 C 126.453 299.100,126.627 298.869,126.821 298.220 C 127.198 296.958,127.065 296.333,126.649 297.415 M97.800 301.600 C 97.648 302.291,97.607 302.941,97.709 303.042 C 97.811 303.144,98.009 302.653,98.150 301.950 C 98.483 300.283,98.160 299.960,97.800 301.600 M97.000 305.200 C 96.848 305.891,96.807 306.541,96.909 306.642 C 97.011 306.744,97.209 306.253,97.350 305.550 C 97.683 303.883,97.360 303.560,97.000 305.200 M123.000 309.061 C 122.664 309.865,122.482 310.615,122.595 310.728 C 122.708 310.841,122.800 310.835,122.800 310.716 C 122.800 310.596,123.072 309.846,123.405 309.049 C 123.738 308.252,123.921 307.600,123.811 307.600 C 123.701 307.600,123.336 308.258,123.000 309.061 M120.682 314.211 C 120.092 315.415,119.694 316.400,119.798 316.400 C 120.067 316.400,122.084 312.351,121.905 312.171 C 121.823 312.089,121.273 313.007,120.682 314.211 M117.952 319.300 C 117.690 319.795,117.215 320.650,116.896 321.200 C 116.339 322.159,116.343 322.167,116.988 321.400 C 117.786 320.452,118.905 318.400,118.624 318.400 C 118.516 318.400,118.214 318.805,117.952 319.300 M110.568 329.900 C 109.728 330.945,109.455 331.440,109.963 331.000 C 110.917 330.174,112.592 328.000,112.275 328.000 C 112.177 328.000,111.409 328.855,110.568 329.900 M85.800 331.200 C 85.459 331.860,85.269 332.400,85.379 332.400 C 85.489 332.400,85.859 331.860,86.200 331.200 C 86.541 330.540,86.731 330.000,86.621 330.000 C 86.511 330.000,86.141 330.540,85.800 331.200 M84.000 334.000 C 83.530 334.660,83.236 335.200,83.346 335.200 C 83.456 335.200,83.930 334.660,84.400 334.000 C 84.870 333.340,85.164 332.800,85.054 332.800 C 84.944 332.800,84.470 333.340,84.000 334.000 M104.812 336.193 L 101.825 339.400 104.994 336.315 C 106.737 334.618,108.082 333.175,107.982 333.108 C 107.882 333.041,106.456 334.429,104.812 336.193 M81.600 337.400 C 80.919 338.390,80.452 339.200,80.562 339.200 C 80.672 339.200,81.319 338.390,82.000 337.400 C 82.681 336.410,83.148 335.600,83.038 335.600 C 82.928 335.600,82.281 336.410,81.600 337.400 M98.066 342.221 C 96.893 343.199,96.087 344.000,96.277 344.000 C 96.467 344.000,97.517 343.198,98.611 342.218 C 101.179 339.917,100.826 339.919,98.066 342.221 M76.608 343.900 C 75.749 344.945,75.460 345.440,75.966 345.000 C 76.861 344.222,78.598 342.000,78.312 342.000 C 78.234 342.000,77.467 342.855,76.608 343.900 M91.600 347.249 C 90.206 348.471,90.205 348.472,91.488 347.619 C 92.196 347.148,92.882 346.591,93.012 346.381 C 93.397 345.757,93.077 345.954,91.600 347.249 M88.296 349.350 C 86.375 350.531,85.838 351.089,87.400 350.281 C 88.654 349.633,90.345 348.426,90.000 348.425 C 89.890 348.425,89.123 348.841,88.296 349.350 M78.000 350.800 C 78.697 351.680,79.357 352.400,79.467 352.400 C 79.577 352.400,79.097 351.680,78.400 350.800 C 77.703 349.920,77.043 349.200,76.933 349.200 C 76.823 349.200,77.303 349.920,78.000 350.800 M83.400 352.400 C 82.740 352.837,82.380 353.192,82.600 353.188 C 83.001 353.182,85.176 351.623,84.800 351.612 C 84.690 351.608,84.060 351.963,83.400 352.400 M79.949 353.300 C 80.556 354.073,81.419 354.216,81.797 353.605 C 81.938 353.377,81.776 353.311,81.416 353.449 C 81.071 353.581,80.477 353.444,80.095 353.145 C 79.466 352.652,79.452 352.667,79.949 353.300 " stroke="none" fill="#d48484" fill-rule="evenodd"></path><path id="path4" d="M258.900 46.294 C 259.945 46.376,261.655 46.376,262.700 46.294 C 263.745 46.212,262.890 46.144,260.800 46.144 C 258.710 46.144,257.855 46.212,258.900 46.294 M94.300 49.100 C 105.795 49.159,124.605 49.159,136.100 49.100 C 147.595 49.041,138.190 48.993,115.200 48.993 C 92.210 48.993,82.805 49.041,94.300 49.100 M252.305 67.883 C 252.802 67.979,253.522 67.975,253.905 67.875 C 254.287 67.775,253.880 67.696,253.000 67.701 C 252.120 67.705,251.807 67.787,252.305 67.883 M257.900 67.882 C 258.395 67.978,259.205 67.978,259.700 67.882 C 260.195 67.787,259.790 67.709,258.800 67.709 C 257.810 67.709,257.405 67.787,257.900 67.882 M99.499 68.440 C 99.895 68.947,100.020 90.890,100.100 174.040 L 100.202 279.000 100.301 173.949 C 100.395 74.308,100.364 68.870,99.700 68.349 C 99.080 67.863,99.057 67.873,99.499 68.440 M291.301 80.200 C 291.305 81.080,291.387 81.393,291.483 80.895 C 291.579 80.398,291.575 79.678,291.475 79.295 C 291.375 78.913,291.296 79.320,291.301 80.200 M292.101 95.400 C 292.105 96.280,292.187 96.593,292.283 96.095 C 292.379 95.598,292.375 94.878,292.275 94.495 C 292.175 94.113,292.096 94.520,292.101 95.400 M245.300 253.887 C 245.905 253.978,246.895 253.978,247.500 253.887 C 248.105 253.795,247.610 253.720,246.400 253.720 C 245.190 253.720,244.695 253.795,245.300 253.887 M253.907 253.890 C 254.626 253.979,255.706 253.977,256.307 253.886 C 256.908 253.795,256.320 253.722,255.000 253.724 C 253.680 253.726,253.188 253.801,253.907 253.890 " stroke="none" fill="#d47c7c" fill-rule="evenodd"></path></g></svg>